<svg xmlns="http://www.w3.org/2000/svg" xmlns:xlink="http://www.w3.org/1999/xlink" width="500" zoomAndPan="magnify" viewBox="0 0 375 374.999991" height="500" preserveAspectRatio="xMidYMid meet" version="1.0"><defs><clipPath id="5f37313bf8"><path d="M 16 48.148438 L 374.683594 48.148438 L 374.683594 300 L 16 300 Z M 16 48.148438 " clip-rule="nonzero"/></clipPath><clipPath id="b96148143c"><path d="M 0.515625 94 L 296.894531 94 L 296.894531 327.148438 L 0.515625 327.148438 Z M 0.515625 94 " clip-rule="nonzero"/></clipPath></defs><g clip-path="url(#5f37313bf8)"><path fill="#689f38" d="M 374.683594 62.558594 C 314.867188 110.832031 284.28125 184.132812 247.121094 225.621094 C 11.363281 488.851562 -174.027344 -44.519531 374.683594 62.558594 " fill-opacity="1" fill-rule="evenodd"/></g><g clip-path="url(#b96148143c)"><path fill="#558b2f" d="M 0.515625 307.597656 C 48.074219 241.554688 86.515625 171.152344 174.605469 128.847656 C 210.296875 111.703125 217.484375 105.277344 257.429688 95.878906 L 257 95.984375 C 273.605469 93.75 280.539062 95.203125 296.460938 96.445312 C 283.601562 98.296875 292.785156 97.429688 277.167969 97.828125 C 239.550781 98.804688 210.308594 118.546875 177.871094 135.269531 C 86.617188 182.3125 56.121094 255.082031 3 327.179688 L 0.515625 307.597656 " fill-opacity="1" fill-rule="evenodd"/></g><path fill="#558b2f" d="M 147.796875 144.296875 C 154.082031 143.449219 160.535156 142.828125 167.191406 142.453125 C 200.585938 140.570312 208.265625 137.867188 242.492188 143.40625 L 242.117188 143.351562 C 255.808594 146.960938 260.757812 150.332031 272.789062 156.4375 C 262.152344 153.738281 269.605469 156.015625 257.277344 151.296875 C 227.582031 139.929688 198.386719 145.921875 167.671875 148.523438 C 160.921875 149.097656 154.414062 149.910156 148.117188 150.941406 C 148.863281 148.769531 148.738281 146.386719 147.796875 144.296875 " fill-opacity="1" fill-rule="evenodd"/><path fill="#558b2f" d="M 87.015625 192.277344 C 87.378906 192.257812 87.734375 192.230469 88.097656 192.210938 C 127.628906 189.984375 136.722656 186.785156 177.226562 193.339844 L 176.785156 193.273438 C 192.996094 197.550781 198.847656 201.535156 213.09375 208.757812 C 200.5 205.566406 209.320312 208.265625 194.726562 202.675781 C 159.578125 189.222656 125.027344 196.316406 88.664062 199.394531 L 87.886719 199.464844 C 88.441406 197.054688 88.132812 194.496094 87.015625 192.277344 " fill-opacity="1" fill-rule="evenodd"/><path fill="#558b2f" d="M 186.089844 130.078125 C 188.496094 126.589844 190.738281 123.015625 192.792969 119.335938 C 203.117188 100.871094 207.632812 96.558594 211.160156 77.867188 L 211.117188 78.074219 C 211.210938 70.632812 209.292969 68.007812 206.609375 61.554688 C 206.4375 67.335938 206.1875 63.296875 207.496094 69.953125 C 210.628906 85.980469 197.5 102.246094 187.183594 119.253906 C 184.914062 122.988281 182.480469 126.601562 179.894531 130.101562 C 182.136719 129.625 184.359375 129.621094 186.089844 130.078125 " fill-opacity="1" fill-rule="evenodd"/><path fill="#558b2f" d="M 106.921875 181.351562 C 107.054688 181.113281 107.191406 180.878906 107.324219 180.636719 C 121.824219 154.515625 127.660156 148.71875 134.28125 121.242188 L 134.203125 121.539062 C 135.316406 110.410156 133.445312 106.191406 131.191406 96.136719 C 130.207031 104.769531 130.464844 98.683594 131.085938 108.84375 C 132.570312 133.3125 115.105469 155.738281 100.808594 179.679688 L 100.5 180.195312 C 102.921875 180.023438 105.210938 180.429688 106.921875 181.351562 " fill-opacity="1" fill-rule="evenodd"/></svg>